<svg xmlns="http://www.w3.org/2000/svg" xmlns:xlink="http://www.w3.org/1999/xlink" width="56" zoomAndPan="magnify" viewBox="0 0 42 42" height="56" preserveAspectRatio="xMidYMid meet" version="1.0"><defs><clipPath id="ed76c30349"><path d="M 2.539062 2.050781 L 39.167969 2.050781 L 39.167969 38.679688 L 2.539062 38.679688 Z M 2.539062 2.050781 " clip-rule="nonzero"/></clipPath></defs><path fill="#7b1fa2" d="M 18.191406 37.792969 L 17.460938 37.792969 C 17.304688 37.792969 17.148438 37.792969 17.042969 37.738281 C 16.886719 37.738281 16.730469 37.6875 16.574219 37.636719 C 16.261719 37.582031 15.949219 37.425781 15.6875 37.164062 C 15.269531 36.851562 14.851562 36.332031 14.800781 35.234375 C 14.800781 35.234375 14.75 34.503906 14.75 34.296875 C 14.695312 33.253906 14.644531 32.367188 14.644531 31.53125 L 14.644531 30.539062 C 14.644531 29.964844 14.644531 29.339844 14.59375 28.765625 C 14.539062 28.085938 14.539062 27.304688 14.488281 26.523438 L 10.210938 26.523438 C 9.425781 26.523438 8.695312 26.46875 7.964844 26.417969 L 6.402344 26.417969 C 6.191406 26.417969 5.929688 26.417969 5.671875 26.3125 C 5.304688 26.207031 4.941406 26.050781 4.574219 25.738281 C 4.105469 25.320312 3.84375 24.746094 3.84375 24.121094 L 3.84375 23.339844 L 3.894531 22.921875 L 3.894531 22.140625 C 3.894531 21.878906 3.84375 21.566406 3.792969 21.199219 C 3.6875 20.574219 3.636719 19.949219 3.582031 19.375 L 3.53125 19.007812 C 3.480469 18.695312 3.480469 18.382812 3.425781 18.015625 L 3.425781 16.660156 C 3.425781 16.503906 3.425781 16.347656 3.480469 16.242188 C 3.480469 16.085938 3.53125 15.929688 3.582031 15.773438 C 3.6875 15.460938 3.792969 15.148438 4.050781 14.886719 C 4.367188 14.574219 4.886719 14.105469 5.984375 14.050781 L 6.921875 14 C 7.964844 13.949219 8.851562 13.894531 9.6875 13.894531 L 10.679688 13.894531 C 11.253906 13.894531 11.828125 13.894531 12.453125 13.84375 C 12.976562 13.84375 13.546875 13.789062 14.121094 13.789062 C 14.175781 12.902344 14.226562 11.964844 14.332031 11.128906 C 14.332031 10.816406 14.382812 10.503906 14.382812 10.136719 L 14.539062 8.105469 L 14.59375 7.53125 C 14.695312 6.746094 14.75 5.914062 14.851562 5.078125 C 14.90625 4.453125 15.375 3.980469 15.738281 3.722656 C 15.84375 3.667969 15.949219 3.5625 16.105469 3.511719 C 16.417969 3.25 16.835938 3.09375 17.253906 3.09375 L 17.515625 3.09375 C 18.035156 3.042969 18.558594 3.042969 19.078125 3.042969 L 19.390625 3.042969 C 20.28125 3.042969 21.167969 3.09375 21.898438 3.199219 L 22.367188 3.199219 C 22.835938 3.199219 23.410156 3.199219 24.035156 3.304688 L 24.191406 3.304688 C 24.402344 3.304688 24.609375 3.355469 24.871094 3.40625 C 25.289062 3.511719 25.707031 3.667969 26.125 4.035156 C 26.539062 4.398438 26.75 4.816406 26.90625 5.128906 C 26.957031 5.339844 27.0625 5.652344 27.0625 5.859375 C 27.113281 6.226562 27.21875 6.539062 27.21875 6.800781 C 27.269531 7.269531 27.324219 7.738281 27.324219 8.261719 C 27.324219 9.042969 27.324219 9.773438 27.269531 10.503906 L 27.269531 11.027344 C 27.269531 11.234375 27.269531 11.390625 27.21875 11.597656 C 27.21875 11.859375 27.167969 12.121094 27.167969 12.433594 L 27.167969 13.425781 C 28.160156 13.476562 29.203125 13.53125 30.140625 13.632812 C 30.453125 13.632812 30.765625 13.6875 31.132812 13.6875 L 33.167969 13.84375 L 33.742188 13.894531 C 34.472656 13.949219 35.359375 14.050781 36.195312 14.15625 C 36.820312 14.207031 37.289062 14.679688 37.550781 15.042969 C 37.601562 15.148438 37.707031 15.25 37.757812 15.410156 C 38.019531 15.722656 38.175781 16.140625 38.175781 16.554688 L 38.175781 16.816406 C 38.226562 17.339844 38.226562 17.859375 38.226562 18.382812 C 38.226562 19.375 38.175781 20.417969 38.070312 21.253906 L 38.070312 21.722656 C 38.070312 22.191406 38.070312 22.816406 37.96875 23.390625 L 37.96875 23.546875 C 37.96875 23.757812 37.914062 23.964844 37.863281 24.226562 C 37.757812 24.644531 37.601562 25.0625 37.238281 25.476562 C 36.871094 25.894531 36.453125 26.105469 36.140625 26.261719 C 35.828125 26.417969 35.566406 26.46875 35.359375 26.523438 C 34.992188 26.574219 34.679688 26.679688 34.417969 26.679688 C 34.003906 26.574219 33.53125 26.574219 32.957031 26.574219 L 32.644531 26.574219 C 31.96875 26.574219 31.339844 26.523438 30.714844 26.523438 L 30.191406 26.523438 C 29.984375 26.523438 29.828125 26.523438 29.621094 26.46875 C 29.359375 26.46875 29.097656 26.417969 28.785156 26.417969 L 27.21875 26.417969 L 27.21875 31.007812 C 27.21875 31.738281 27.167969 32.523438 27.113281 33.253906 L 27.0625 33.984375 L 27.0625 34.816406 C 27.0625 35.027344 27.0625 35.289062 26.957031 35.546875 C 26.855469 35.914062 26.699219 36.277344 26.382812 36.644531 C 25.96875 37.113281 25.394531 37.375 24.765625 37.375 L 24.609375 37.375 C 24.453125 37.375 24.296875 37.375 24.140625 37.324219 L 23.984375 37.324219 L 23.617188 37.269531 L 22.886719 37.269531 C 22.628906 37.269531 22.3125 37.324219 21.949219 37.375 C 21.324219 37.480469 20.695312 37.53125 20.121094 37.582031 L 19.757812 37.636719 C 19.445312 37.6875 19.132812 37.6875 18.765625 37.738281 C 18.609375 37.792969 18.402344 37.792969 18.191406 37.792969 Z M 18.191406 37.792969 " fill-opacity="1" fill-rule="nonzero"/><g clip-path="url(#ed76c30349)"><path fill="#4f076d" d="M 19.390625 3.878906 C 20.226562 3.878906 21.113281 3.929688 21.84375 4.035156 L 22.367188 4.035156 C 22.835938 4.035156 23.359375 4.035156 23.933594 4.136719 L 24.089844 4.136719 C 24.246094 4.136719 24.402344 4.191406 24.558594 4.242188 C 24.820312 4.347656 25.183594 4.453125 25.445312 4.660156 C 25.707031 4.921875 25.863281 5.128906 26.019531 5.441406 C 26.125 5.652344 26.175781 5.914062 26.226562 6.070312 C 26.28125 6.382812 26.332031 6.644531 26.382812 6.902344 C 26.4375 7.320312 26.4375 7.738281 26.488281 8.261719 C 26.488281 8.992188 26.488281 9.722656 26.4375 10.453125 L 26.4375 10.972656 C 26.4375 11.128906 26.4375 11.339844 26.382812 11.496094 C 26.382812 11.757812 26.332031 12.070312 26.332031 12.328125 L 26.332031 14.261719 L 27.113281 14.261719 C 28.105469 14.3125 29.148438 14.363281 30.140625 14.46875 C 30.453125 14.46875 30.820312 14.519531 31.132812 14.519531 L 33.167969 14.679688 L 33.792969 14.730469 C 34.574219 14.835938 35.410156 14.886719 36.195312 14.992188 C 36.453125 15.042969 36.765625 15.25 36.871094 15.460938 L 37.027344 15.773438 C 37.238281 15.980469 37.339844 16.242188 37.339844 16.503906 L 37.339844 16.765625 C 37.394531 17.285156 37.394531 17.757812 37.394531 18.277344 C 37.394531 19.21875 37.339844 20.261719 37.289062 21.042969 L 37.289062 21.566406 C 37.289062 22.035156 37.289062 22.554688 37.183594 23.128906 L 37.183594 23.285156 C 37.183594 23.445312 37.132812 23.601562 37.082031 23.757812 C 36.976562 24.015625 36.871094 24.382812 36.664062 24.644531 C 36.402344 24.90625 36.195312 25.0625 35.878906 25.21875 C 35.671875 25.320312 35.410156 25.375 35.253906 25.425781 C 34.941406 25.476562 34.679688 25.53125 34.417969 25.582031 C 34.003906 25.636719 33.585938 25.636719 33.0625 25.6875 L 32.75 25.6875 C 32.125 25.6875 31.496094 25.636719 30.871094 25.636719 L 30.351562 25.636719 C 30.191406 25.636719 29.984375 25.636719 29.828125 25.582031 C 29.410156 25.53125 29.148438 25.53125 28.835938 25.53125 L 26.382812 25.53125 C 26.382812 26.417969 26.382812 27.355469 26.332031 28.191406 L 26.332031 31.0625 C 26.332031 31.792969 26.28125 32.574219 26.226562 33.304688 L 26.175781 34.035156 L 26.175781 34.871094 C 26.175781 35.027344 26.175781 35.183594 26.125 35.339844 C 26.019531 35.601562 25.96875 35.863281 25.757812 36.070312 C 25.496094 36.332031 25.132812 36.539062 24.765625 36.539062 L 24.140625 36.539062 L 23.933594 36.488281 L 22.835938 36.488281 C 22.523438 36.488281 22.210938 36.539062 21.84375 36.59375 C 21.21875 36.644531 20.644531 36.75 20.019531 36.800781 L 19.707031 36.800781 C 19.390625 36.851562 19.078125 36.851562 18.765625 36.851562 L 17.515625 36.851562 C 17.410156 36.851562 17.253906 36.851562 17.148438 36.800781 C 17.042969 36.800781 16.941406 36.75 16.835938 36.75 C 16.628906 36.695312 16.46875 36.59375 16.3125 36.488281 C 15.949219 36.226562 15.792969 35.808594 15.738281 35.234375 L 15.738281 34.921875 C 15.738281 34.714844 15.738281 34.503906 15.6875 34.296875 C 15.636719 33.253906 15.582031 32.367188 15.582031 31.53125 L 15.582031 30.589844 C 15.582031 30.019531 15.582031 29.390625 15.53125 28.765625 C 15.480469 27.878906 15.425781 26.886719 15.425781 25.894531 L 15.425781 25.6875 L 10.261719 25.6875 C 9.53125 25.6875 8.75 25.636719 8.019531 25.582031 L 7.289062 25.53125 L 6.453125 25.53125 C 6.296875 25.53125 6.140625 25.53125 5.984375 25.476562 C 5.722656 25.375 5.460938 25.320312 5.253906 25.113281 C 4.992188 24.851562 4.78125 24.488281 4.78125 24.121094 L 4.78125 22.140625 C 4.78125 21.824219 4.730469 21.511719 4.679688 21.148438 C 4.625 20.523438 4.523438 19.949219 4.46875 19.320312 L 4.46875 19.007812 C 4.417969 18.695312 4.417969 18.382812 4.417969 18.070312 L 4.417969 16.871094 C 4.417969 16.765625 4.417969 16.609375 4.46875 16.503906 C 4.46875 16.398438 4.523438 16.296875 4.523438 16.191406 C 4.574219 15.980469 4.679688 15.824219 4.78125 15.667969 C 5.042969 15.304688 5.460938 15.148438 6.035156 15.09375 L 6.347656 15.09375 C 6.558594 15.09375 6.765625 15.09375 6.972656 15.042969 C 8.019531 14.992188 8.90625 14.9375 9.738281 14.9375 L 10.679688 14.9375 C 11.253906 14.9375 11.878906 14.9375 12.503906 14.886719 C 13.289062 14.835938 14.175781 14.835938 15.007812 14.78125 L 15.007812 14.3125 C 15.0625 13.320312 15.113281 12.277344 15.21875 11.285156 C 15.21875 10.972656 15.269531 10.609375 15.269531 10.296875 L 15.425781 8.261719 L 15.480469 7.632812 C 15.582031 6.746094 15.6875 5.914062 15.792969 5.128906 C 15.84375 4.867188 16.054688 4.554688 16.261719 4.453125 L 16.574219 4.292969 C 16.785156 4.085938 17.042969 3.980469 17.304688 3.980469 L 17.566406 3.980469 C 18.089844 3.929688 18.558594 3.929688 19.078125 3.929688 C 19.183594 3.878906 19.289062 3.878906 19.390625 3.878906 M 19.390625 2.050781 L 19.027344 2.050781 C 18.503906 2.050781 17.984375 2.101562 17.460938 2.101562 L 17.199219 2.101562 C 16.628906 2.15625 16.105469 2.3125 15.636719 2.625 C 15.480469 2.675781 15.375 2.78125 15.21875 2.832031 C 14.539062 3.355469 14.070312 4.136719 13.964844 4.867188 C 13.863281 5.703125 13.808594 6.539062 13.707031 7.320312 L 13.652344 7.945312 C 13.601562 8.675781 13.546875 9.355469 13.496094 10.035156 C 13.496094 10.347656 13.445312 10.660156 13.445312 11.027344 L 13.289062 12.902344 C 12.976562 12.902344 12.714844 12.957031 12.402344 12.957031 C 11.828125 13.007812 11.253906 13.007812 10.679688 13.007812 L 9.6875 13.007812 C 8.851562 13.007812 7.964844 13.058594 6.871094 13.113281 C 6.660156 13.113281 6.453125 13.113281 6.242188 13.164062 L 5.929688 13.164062 C 4.523438 13.21875 3.738281 13.84375 3.320312 14.417969 C 3.007812 14.78125 2.800781 15.199219 2.695312 15.617188 C 2.644531 15.824219 2.589844 15.980469 2.589844 16.191406 C 2.589844 16.347656 2.539062 16.503906 2.539062 16.660156 L 2.539062 18.121094 C 2.539062 18.488281 2.589844 18.800781 2.644531 19.113281 L 2.644531 19.425781 C 2.695312 20 2.75 20.679688 2.851562 21.304688 C 2.90625 21.667969 2.90625 21.929688 2.957031 22.191406 L 2.957031 23.339844 C 2.957031 23.546875 2.90625 23.757812 2.90625 24.015625 L 2.90625 24.070312 C 2.957031 24.90625 3.320312 25.738281 3.949219 26.3125 C 4.46875 26.835938 5.097656 26.992188 5.410156 27.097656 C 5.828125 27.199219 6.191406 27.253906 6.402344 27.253906 L 7.234375 27.253906 L 7.914062 27.304688 C 8.644531 27.355469 9.425781 27.355469 10.15625 27.410156 L 13.652344 27.410156 C 13.652344 27.878906 13.707031 28.347656 13.707031 28.816406 C 13.757812 29.390625 13.757812 29.964844 13.757812 30.539062 L 13.757812 31.582031 C 13.757812 32.417969 13.808594 33.304688 13.863281 34.402344 C 13.863281 34.609375 13.863281 34.816406 13.914062 35.027344 L 13.914062 35.339844 C 13.964844 36.75 14.59375 37.53125 15.167969 37.949219 C 15.53125 38.261719 15.949219 38.46875 16.367188 38.574219 C 16.574219 38.625 16.730469 38.679688 16.941406 38.679688 C 17.097656 38.679688 17.253906 38.730469 17.410156 38.730469 L 18.871094 38.730469 C 19.234375 38.730469 19.550781 38.679688 19.863281 38.625 L 20.175781 38.625 C 20.75 38.574219 21.425781 38.523438 22.054688 38.417969 C 22.417969 38.367188 22.679688 38.367188 22.941406 38.3125 L 24.035156 38.3125 C 24.191406 38.3125 24.347656 38.367188 24.609375 38.367188 L 24.820312 38.367188 C 25.652344 38.3125 26.488281 37.949219 27.0625 37.324219 C 27.585938 36.800781 27.742188 36.175781 27.84375 35.863281 C 27.949219 35.445312 28 35.078125 28 34.871094 L 28 34.035156 L 28.105469 33.355469 C 28.160156 32.625 28.160156 31.84375 28.210938 31.113281 L 28.210938 27.355469 L 28.835938 27.355469 C 29.097656 27.355469 29.359375 27.355469 29.621094 27.410156 C 29.828125 27.410156 29.984375 27.410156 30.191406 27.460938 L 30.714844 27.460938 C 31.339844 27.511719 32.019531 27.511719 32.699219 27.511719 L 33.011719 27.511719 C 33.585938 27.511719 34.054688 27.460938 34.574219 27.410156 C 34.890625 27.355469 35.253906 27.304688 35.621094 27.199219 C 35.878906 27.148438 36.195312 27.042969 36.609375 26.886719 C 36.976562 26.730469 37.496094 26.417969 38.019531 25.894531 C 38.488281 25.375 38.699219 24.800781 38.855469 24.332031 C 38.957031 24.015625 38.957031 23.703125 39.011719 23.496094 L 39.011719 23.390625 C 39.0625 22.714844 39.117188 22.140625 39.117188 21.617188 L 39.117188 21.199219 C 39.167969 20.363281 39.273438 19.320312 39.273438 18.277344 C 39.273438 17.757812 39.21875 17.234375 39.21875 16.710938 L 39.21875 16.453125 C 39.167969 15.878906 39.011719 15.355469 38.699219 14.886719 C 38.644531 14.730469 38.542969 14.625 38.488281 14.46875 C 38.019531 13.738281 37.289062 13.269531 36.507812 13.21875 C 35.671875 13.113281 34.835938 13.058594 34.054688 12.957031 L 33.429688 12.902344 C 32.699219 12.851562 32.019531 12.800781 31.339844 12.746094 C 31.027344 12.746094 30.714844 12.695312 30.351562 12.695312 C 29.671875 12.644531 28.941406 12.589844 28.261719 12.539062 L 28.261719 12.433594 C 28.261719 12.171875 28.261719 11.914062 28.316406 11.652344 C 28.316406 11.496094 28.316406 11.285156 28.367188 11.128906 L 28.367188 10.609375 C 28.417969 9.878906 28.417969 9.09375 28.417969 8.3125 C 28.417969 7.738281 28.367188 7.269531 28.316406 6.746094 C 28.261719 6.433594 28.210938 6.070312 28.105469 5.703125 C 28.054688 5.441406 27.949219 5.128906 27.792969 4.710938 C 27.636719 4.347656 27.324219 3.824219 26.800781 3.304688 C 26.28125 2.832031 25.707031 2.625 25.234375 2.46875 C 24.921875 2.363281 24.609375 2.363281 24.402344 2.3125 L 24.296875 2.3125 C 23.515625 2.207031 22.886719 2.207031 22.367188 2.207031 L 21.949219 2.207031 C 21.21875 2.101562 20.332031 2.050781 19.390625 2.050781 Z M 19.390625 2.050781 " fill-opacity="1" fill-rule="nonzero"/></g></svg>