<svg xmlns="http://www.w3.org/2000/svg" xmlns:xlink="http://www.w3.org/1999/xlink" width="56" zoomAndPan="magnify" viewBox="0 0 42 42" height="56" preserveAspectRatio="xMidYMid meet" version="1.0"><defs><clipPath id="6a74ee1d25"><path d="M 0.488281 0 L 41.511719 0 L 41.511719 41.023438 L 0.488281 41.023438 Z M 0.488281 0 " clip-rule="nonzero"/></clipPath></defs><g clip-path="url(#6a74ee1d25)"><path fill="#7b1fa2" d="M 41.511719 20.511719 C 41.511719 21.183594 41.480469 21.855469 41.414062 22.523438 C 41.347656 23.191406 41.25 23.855469 41.117188 24.511719 C 40.988281 25.171875 40.824219 25.824219 40.628906 26.464844 C 40.433594 27.109375 40.207031 27.742188 39.949219 28.359375 C 39.691406 28.980469 39.40625 29.589844 39.089844 30.179688 C 38.773438 30.773438 38.429688 31.347656 38.054688 31.90625 C 37.679688 32.464844 37.28125 33.003906 36.855469 33.523438 C 36.429688 34.042969 35.980469 34.539062 35.503906 35.015625 C 35.027344 35.492188 34.53125 35.941406 34.011719 36.367188 C 33.492188 36.792969 32.953125 37.191406 32.394531 37.566406 C 31.835938 37.941406 31.261719 38.285156 30.667969 38.601562 C 30.078125 38.917969 29.46875 39.203125 28.847656 39.460938 C 28.230469 39.71875 27.597656 39.945312 26.953125 40.140625 C 26.3125 40.335938 25.660156 40.5 25 40.628906 C 24.34375 40.761719 23.679688 40.859375 23.011719 40.925781 C 22.34375 40.992188 21.671875 41.023438 21 41.023438 C 20.328125 41.023438 19.65625 40.992188 18.988281 40.925781 C 18.320312 40.859375 17.65625 40.761719 17 40.628906 C 16.339844 40.5 15.6875 40.335938 15.046875 40.140625 C 14.402344 39.945312 13.769531 39.71875 13.152344 39.460938 C 12.53125 39.203125 11.921875 38.917969 11.332031 38.601562 C 10.738281 38.285156 10.164062 37.941406 9.605469 37.566406 C 9.046875 37.191406 8.507812 36.792969 7.988281 36.367188 C 7.46875 35.941406 6.972656 35.492188 6.496094 35.015625 C 6.019531 34.539062 5.570312 34.042969 5.144531 33.523438 C 4.71875 33.003906 4.320312 32.464844 3.945312 31.90625 C 3.570312 31.347656 3.226562 30.773438 2.910156 30.179688 C 2.59375 29.589844 2.308594 28.980469 2.050781 28.359375 C 1.792969 27.742188 1.566406 27.109375 1.371094 26.464844 C 1.175781 25.824219 1.011719 25.171875 0.882812 24.511719 C 0.75 23.855469 0.652344 23.191406 0.585938 22.523438 C 0.519531 21.855469 0.488281 21.183594 0.488281 20.511719 C 0.488281 19.839844 0.519531 19.167969 0.585938 18.5 C 0.652344 17.832031 0.75 17.167969 0.882812 16.511719 C 1.011719 15.851562 1.175781 15.199219 1.371094 14.558594 C 1.566406 13.914062 1.792969 13.28125 2.050781 12.664062 C 2.308594 12.042969 2.59375 11.433594 2.910156 10.84375 C 3.226562 10.25 3.570312 9.675781 3.945312 9.117188 C 4.320312 8.558594 4.71875 8.019531 5.144531 7.5 C 5.570312 6.980469 6.019531 6.484375 6.496094 6.007812 C 6.972656 5.53125 7.46875 5.082031 7.988281 4.65625 C 8.507812 4.230469 9.046875 3.828125 9.605469 3.457031 C 10.164062 3.082031 10.738281 2.738281 11.332031 2.421875 C 11.921875 2.105469 12.53125 1.820312 13.152344 1.5625 C 13.769531 1.304688 14.402344 1.078125 15.046875 0.882812 C 15.6875 0.6875 16.339844 0.523438 17 0.394531 C 17.65625 0.261719 18.320312 0.164062 18.988281 0.0976562 C 19.65625 0.03125 20.328125 0 21 0 C 21.671875 0 22.34375 0.03125 23.011719 0.0976562 C 23.679688 0.164062 24.34375 0.261719 25 0.394531 C 25.660156 0.523438 26.3125 0.6875 26.953125 0.882812 C 27.597656 1.078125 28.230469 1.304688 28.847656 1.5625 C 29.46875 1.820312 30.078125 2.105469 30.667969 2.421875 C 31.261719 2.738281 31.835938 3.082031 32.394531 3.457031 C 32.953125 3.828125 33.492188 4.230469 34.011719 4.65625 C 34.53125 5.082031 35.027344 5.53125 35.503906 6.007812 C 35.980469 6.484375 36.429688 6.980469 36.855469 7.5 C 37.28125 8.019531 37.679688 8.558594 38.054688 9.117188 C 38.429688 9.675781 38.773438 10.25 39.089844 10.84375 C 39.40625 11.433594 39.691406 12.042969 39.949219 12.664062 C 40.207031 13.28125 40.433594 13.914062 40.628906 14.558594 C 40.824219 15.199219 40.988281 15.851562 41.117188 16.511719 C 41.25 17.167969 41.347656 17.832031 41.414062 18.5 C 41.480469 19.167969 41.511719 19.839844 41.511719 20.511719 Z M 41.511719 20.511719 " fill-opacity="1" fill-rule="nonzero"/></g><path fill="#ffffff" d="M 8.976562 21.617188 C 11.027344 23.871094 13.078125 26.128906 15.128906 28.386719 C 16.03125 29.378906 17.542969 29.191406 18.476562 28.386719 C 22.71875 24.757812 26.980469 21.128906 31.222656 17.496094 C 31.824219 16.992188 32.421875 16.472656 33.023438 15.96875 C 34 15.132812 33.875 13.472656 33.023438 12.621094 C 32.058594 11.660156 30.65625 11.785156 29.679688 12.621094 C 25.433594 16.25 21.171875 19.878906 16.929688 23.507812 C 16.328125 24.015625 15.730469 24.535156 15.128906 25.039062 C 16.25 25.039062 17.355469 25.039062 18.476562 25.039062 C 16.425781 22.785156 14.375 20.527344 12.320312 18.269531 C 11.46875 17.324219 9.84375 17.402344 8.976562 18.269531 C 8.046875 19.21875 8.125 20.667969 8.976562 21.617188 Z M 8.976562 21.617188 " fill-opacity="1" fill-rule="nonzero"/></svg>