<?xml version="1.0" standalone="no"?>
<!DOCTYPE svg PUBLIC "-//W3C//DTD SVG 20010904//EN"
 "http://www.w3.org/TR/2001/REC-SVG-20010904/DTD/svg10.dtd">
<svg version="1.0" xmlns="http://www.w3.org/2000/svg"
 width="240.000000pt" height="90.000000pt" viewBox="0 0 240.000000 90.000000"
 preserveAspectRatio="xMidYMid meet">

<g transform="translate(0.000000,90.000000) scale(0.100000,-0.100000)"
fill="#000000" stroke="none">
<path d="M0 460 l0 -440 1195 0 1194 0 0 266 0 267 -42 -7 c-225 -34 -433 -6
-542 73 -53 38 -74 76 -85 153 -6 34 -12 78 -15 96 l-6 32 -849 0 -850 0 0
-440z m300 350 c0 -33 -4 -60 -10 -60 -5 0 -10 23 -10 50 l0 50 -90 0 -90 0 0
-49 c0 -53 8 -61 59 -61 26 0 51 -16 51 -32 0 -4 -9 -8 -20 -8 -16 0 -20 -7
-20 -35 0 -24 -5 -38 -17 -42 -21 -8 -53 31 -53 66 0 15 -8 31 -19 38 -15 9
-17 21 -14 65 7 82 0 78 123 78 l110 0 0 -60z m105 21 c3 -6 18 -6 38 0 17 5
33 5 35 1 1 -5 20 -7 42 -5 41 3 46 -1 30 -27 -7 -11 -31 -15 -100 -16 l-90
-1 0 29 c0 21 5 28 19 28 11 0 22 -4 26 -9z m315 0 c0 -8 101 -4 123 4 14 6
17 2 17 -23 l0 -30 -80 1 c-65 0 -80 3 -81 16 -1 13 -2 13 -6 -1 -6 -23 -45
-17 -49 7 -2 11 -1 22 1 25 5 7 75 8 75 1z m298 -18 c-3 -27 -5 -28 -68 -28
-60 0 -65 2 -68 23 -3 21 0 22 48 19 28 -1 54 1 56 5 3 4 12 8 20 8 11 0 14
-8 12 -27z m340 -1 c4 -25 -25 -43 -38 -22 -5 8 -10 8 -14 2 -3 -5 -23 -9 -43
-9 -32 2 -37 5 -36 25 0 12 1 24 2 26 1 2 29 4 64 3 56 -2 62 -4 65 -25z m149
16 c73 0 93 -3 98 -15 3 -9 3 -19 -1 -22 -3 -3 -55 -7 -115 -7 l-109 -1 0 29
c0 25 3 29 18 23 9 -4 58 -7 109 -7z m-884 -19 c6 -22 -13 -35 -37 -26 -20 8
-8 47 14 47 10 0 20 -9 23 -21z m577 -4 c0 -18 -5 -25 -20 -25 -12 0 -20 7
-21 18 -1 16 -2 16 -6 -1 -4 -14 -14 -17 -56 -14 -44 2 -52 6 -55 23 -3 20 2
21 77 22 80 1 81 1 81 -23z m-1030 -19 c0 -20 -27 -39 -45 -32 -18 7 -20 52
-2 59 17 6 47 -11 47 -27z m269 -47 c17 1 22 -3 17 -15 -3 -9 -6 -19 -6 -23 0
-5 -20 -8 -44 -8 -36 0 -45 4 -50 20 -7 30 3 40 33 31 14 -4 37 -6 50 -5z
m205 5 c9 -3 16 -16 16 -28 0 -21 -4 -22 -87 -21 -81 0 -88 2 -88 20 0 18 7
20 57 21 32 0 61 4 65 7 8 9 17 9 37 1z m56 -2 c0 -5 17 -6 38 -4 48 7 123 7
190 1 29 -3 55 -1 58 3 3 5 11 5 17 1 7 -4 21 -7 32 -8 13 0 20 -7 20 -20 0
-19 -7 -20 -125 -22 -69 -1 -137 -5 -152 -9 -16 -4 -28 -2 -28 3 0 6 -16 9
-35 7 -33 -2 -35 0 -35 27 0 16 5 29 10 29 6 0 10 -4 10 -8z m445 -2 c17 0 41
1 55 3 14 3 29 2 35 -1 5 -4 19 -6 30 -7 13 0 20 -7 20 -20 0 -17 -7 -20 -47
-21 -38 -1 -48 2 -49 15 -1 13 -2 13 -5 1 -3 -11 -20 -16 -54 -17 -49 -1 -50
-1 -50 28 0 24 4 29 18 25 9 -3 31 -6 47 -6z m495 -5 c0 -8 5 -15 10 -15 6 0
10 -7 10 -15 0 -12 -17 -14 -97 -12 -92 2 -98 4 -101 24 -3 20 0 21 72 20 42
0 79 2 82 6 12 12 24 8 24 -8z m-200 -20 c0 -22 -4 -24 -37 -22 -21 1 -43 6
-49 10 -7 4 -14 0 -18 -8 -7 -18 -30 -20 -23 -2 2 6 0 19 -4 29 -8 14 -1 16
61 17 68 0 70 0 70 -24z m739 -295 c39 -11 86 -51 107 -92 8 -16 14 -57 14
-101 0 -84 -19 -124 -79 -164 -34 -23 -35 -23 -423 -23 -429 0 -418 -1 -476
64 -36 41 -47 87 -39 158 8 66 44 120 99 147 42 20 55 21 403 21 205 0 375 -4
394 -10z m-1884 -49 c-44 -20 -110 -50 -148 -66 -58 -26 -67 -33 -67 -55 0
-15 -11 -37 -25 -50 l-25 -23 0 35 c0 20 -6 38 -12 41 -7 2 -11 6 -8 9 8 8
344 147 355 147 6 0 -26 -17 -70 -38z m-174 -113 l2 -23 4 23 c4 18 9 21 26
16 12 -4 42 -8 67 -8 39 -1 45 -4 48 -24 3 -22 1 -23 -40 -19 -24 3 -49 0 -56
-6 -8 -6 -16 -7 -20 -1 -4 5 -16 9 -27 9 -14 0 -21 8 -23 28 -2 15 1 27 7 27
6 0 12 -10 12 -22z m222 10 c9 0 17 -4 17 -11 0 -6 6 -3 13 6 10 14 32 16 57
7 7 -3 9 -3 53 4 20 3 37 2 37 -3 0 -4 14 -7 32 -5 22 3 37 -2 50 -16 22 -23
15 -44 -10 -32 -9 4 -64 7 -122 6 -58 0 -111 3 -117 9 -8 5 -13 5 -13 0 0 -5
-13 -10 -30 -11 -27 -2 -30 0 -30 29 0 27 2 30 23 23 12 -4 30 -7 40 -6z m337
0 c0 -5 12 -7 28 -6 21 2 28 -2 30 -19 3 -20 -1 -21 -50 -20 -49 2 -53 4 -56
28 -3 23 1 27 22 27 15 0 26 -5 26 -10z m133 0 c9 0 17 -4 17 -11 0 -6 6 -3
13 6 10 14 32 16 57 7 3 -1 21 -3 40 -4 28 -1 36 -6 38 -22 3 -21 -1 -22 -75
-21 -43 1 -81 6 -85 11 -5 7 -8 7 -8 -1 0 -8 -13 -13 -30 -13 -27 0 -30 3 -30
31 0 27 2 30 23 23 12 -4 30 -7 40 -6z m287 -2 c0 -8 3 -21 6 -30 5 -13 -3
-16 -47 -15 -30 1 -57 7 -61 13 -15 22 -8 33 17 28 15 -2 25 0 25 7 0 6 14 11
30 11 19 0 30 -5 30 -14z m-700 -86 c0 -5 17 -9 38 -7 32 2 37 -1 40 -20 4
-24 -21 -33 -34 -12 -4 8 -9 7 -15 -2 -8 -12 -11 -11 -19 1 -6 9 -10 10 -10 3
0 -19 -119 -14 -130 6 -8 14 -9 14 -10 -1 0 -10 -4 -18 -10 -18 -15 0 -12 40
3 41 6 1 38 1 70 1 31 0 57 4 57 9 0 5 5 9 10 9 6 0 10 -4 10 -10z m386 -19
c2 -30 -25 -39 -42 -16 -12 16 -14 17 -14 2 0 -13 -10 -16 -47 -15 -27 0 -51
6 -55 12 -6 8 -8 7 -8 -1 0 -19 -27 -16 -39 5 -10 16 -10 16 -11 0 0 -10 -4
-18 -10 -18 -15 0 -12 40 3 41 6 0 54 1 105 0 57 0 92 4 92 10 0 21 25 2 26
-20z m84 12 c0 -28 -13 -41 -40 -39 -18 1 -25 7 -25 21 0 12 7 20 17 20 9 0
20 4 24 8 13 12 24 8 24 -10z m95 -13 c0 -22 -5 -25 -42 -28 -41 -3 -42 -2
-39 25 2 15 4 29 5 30 0 1 18 1 39 0 32 -2 37 -5 37 -27z m-425 -10 c0 -13 -7
-20 -19 -20 -22 0 -35 15 -26 30 12 19 45 11 45 -10z"/>
<path d="M1430 416 c0 -2 9 -6 20 -9 11 -3 18 -1 14 4 -5 9 -34 13 -34 5z"/>
<path d="M1495 411 c11 -5 158 -10 333 -10 208 -1 320 -5 334 -12 11 -6 32
-12 46 -14 l26 -3 -23 19 c-22 18 -45 19 -355 19 -182 0 -342 3 -356 5 -22 5
-22 4 -5 -4z"/>
<path d="M1374 391 c-39 -24 -49 -38 -26 -36 25 2 48 17 55 38 8 21 9 21 -29
-2z"/>
<path d="M1810 755 c0 -45 0 -45 35 -45 35 0 36 0 31 38 -3 20 -5 40 -5 45 -1
4 -14 7 -31 7 -29 0 -30 -2 -30 -45z m50 21 c0 -11 -19 -15 -25 -6 -3 5 1 10
9 10 9 0 16 -2 16 -4z m-2 -37 c-2 -6 -8 -10 -13 -10 -5 0 -11 4 -13 10 -2 6
4 11 13 11 9 0 15 -5 13 -11z"/>
<path d="M1898 755 c2 -25 8 -45 13 -45 6 0 8 20 7 45 -2 25 -8 45 -13 45 -6
0 -9 -19 -7 -45z"/>
<path d="M2012 788 c-6 -6 -12 -20 -12 -29 0 -36 12 -49 46 -49 30 0 34 3 34
25 0 18 -5 25 -20 25 -11 0 -20 -4 -20 -10 0 -5 5 -10 12 -10 9 0 9 -3 0 -12
-16 -16 -35 3 -30 28 2 12 12 19 26 18 12 0 21 4 19 10 -5 16 -40 19 -55 4z"/>
<path d="M2172 757 c-1 -23 -5 -50 -8 -59 -4 -12 0 -18 10 -18 13 0 16 12 16
60 0 68 -14 82 -18 17z"/>
<path d="M2318 779 c-15 -4 -29 -4 -32 -1 -3 3 -6 -11 -6 -31 0 -20 5 -37 10
-37 6 0 10 11 10 25 0 15 6 25 14 25 8 0 17 -11 20 -25 4 -14 13 -25 21 -25
13 0 13 3 3 21 -10 17 -10 23 0 26 6 3 12 8 12 13 0 13 -23 17 -52 9z"/>
<path d="M1935 768 c-2 -7 -3 -29 -2 -48 2 -30 5 -35 27 -35 16 0 26 6 28 18
2 11 -3 17 -13 17 -15 0 -15 2 -4 16 22 27 19 44 -7 44 -14 0 -26 -6 -29 -12z
m35 -68 c0 -5 -4 -10 -10 -10 -5 0 -10 5 -10 10 0 6 5 10 10 10 6 0 10 -4 10
-10z"/>
<path d="M2096 768 c-14 -32 -3 -53 32 -56 30 -3 32 -1 32 27 0 39 -18 50 -22
14 -4 -37 -21 -36 -29 2 -5 24 -7 26 -13 13z"/>
<path d="M2215 771 c-3 -6 2 -11 12 -11 17 -1 17 -1 1 -11 -29 -16 -22 -39 11
-39 27 0 28 2 22 32 -7 33 -33 49 -46 29z"/>
</g>
</svg>
