<svg xmlns="http://www.w3.org/2000/svg" xmlns:xlink="http://www.w3.org/1999/xlink" width="56" zoomAndPan="magnify" viewBox="0 0 42 42" height="56" preserveAspectRatio="xMidYMid meet" version="1.0"><defs><clipPath id="a9ae60636b"><path d="M 5.554688 7.511719 L 22.710938 7.511719 L 22.710938 33.152344 L 5.554688 33.152344 Z M 5.554688 7.511719 " clip-rule="nonzero"/></clipPath><clipPath id="00a8370f90"><path d="M 25 16 L 34.773438 16 L 34.773438 26 L 25 26 Z M 25 16 " clip-rule="nonzero"/></clipPath></defs><g clip-path="url(#a9ae60636b)"><path fill="#ffffff" d="M 21.152344 30.554688 L 14.214844 24.941406 C 13.988281 24.757812 13.703125 24.660156 13.410156 24.664062 L 7.113281 24.746094 L 7.113281 15.917969 L 13.410156 16 C 13.703125 16.003906 13.988281 15.90625 14.214844 15.722656 L 21.152344 10.109375 Z M 21.765625 7.625 L 13.546875 14.273438 C 13.398438 14.394531 13.214844 14.457031 13.023438 14.457031 L 6.160156 14.363281 C 5.828125 14.359375 5.554688 14.625 5.554688 14.953125 L 5.554688 25.710938 C 5.554688 26.039062 5.828125 26.304688 6.160156 26.300781 L 13.023438 26.210938 C 13.214844 26.207031 13.398438 26.269531 13.546875 26.390625 L 21.765625 33.039062 C 22.160156 33.320312 22.707031 33.042969 22.707031 32.5625 L 22.707031 8.101562 C 22.707031 7.621094 22.160156 7.34375 21.765625 7.625 " fill-opacity="1" fill-rule="nonzero"/></g><g clip-path="url(#00a8370f90)"><path fill="#ffffff" d="M 31.773438 20.707031 L 34.191406 18.25 C 34.304688 18.128906 34.390625 17.992188 34.453125 17.839844 C 34.511719 17.6875 34.542969 17.527344 34.539062 17.363281 C 34.539062 17.199219 34.507812 17.039062 34.445312 16.886719 C 34.382812 16.734375 34.292969 16.601562 34.175781 16.484375 C 34.0625 16.367188 33.929688 16.277344 33.78125 16.210938 C 33.632812 16.148438 33.476562 16.117188 33.3125 16.113281 C 33.148438 16.113281 32.992188 16.144531 32.84375 16.203125 C 32.691406 16.265625 32.558594 16.351562 32.441406 16.46875 L 30.019531 18.925781 L 27.601562 16.46875 C 27.484375 16.351562 27.351562 16.265625 27.199219 16.203125 C 27.050781 16.144531 26.894531 16.113281 26.730469 16.113281 C 26.570312 16.117188 26.414062 16.148438 26.261719 16.210938 C 26.113281 16.277344 25.980469 16.367188 25.867188 16.484375 C 25.75 16.601562 25.660156 16.734375 25.597656 16.886719 C 25.535156 17.039062 25.503906 17.199219 25.503906 17.363281 C 25.5 17.527344 25.53125 17.6875 25.589844 17.839844 C 25.652344 17.992188 25.738281 18.128906 25.851562 18.25 L 28.269531 20.707031 L 25.851562 23.164062 C 25.730469 23.28125 25.636719 23.417969 25.574219 23.574219 C 25.507812 23.726562 25.472656 23.890625 25.472656 24.058594 C 25.472656 24.226562 25.5 24.390625 25.566406 24.546875 C 25.628906 24.703125 25.71875 24.839844 25.835938 24.960938 C 25.953125 25.078125 26.089844 25.171875 26.242188 25.234375 C 26.394531 25.300781 26.554688 25.332031 26.722656 25.328125 C 26.886719 25.328125 27.046875 25.292969 27.199219 25.226562 C 27.351562 25.160156 27.488281 25.066406 27.601562 24.945312 L 30.019531 22.488281 L 32.441406 24.945312 C 32.554688 25.066406 32.691406 25.160156 32.84375 25.226562 C 32.996094 25.292969 33.15625 25.328125 33.320312 25.328125 C 33.488281 25.332031 33.648438 25.300781 33.800781 25.234375 C 33.953125 25.171875 34.089844 25.078125 34.207031 24.960938 C 34.324219 24.839844 34.414062 24.703125 34.480469 24.546875 C 34.542969 24.390625 34.574219 24.226562 34.570312 24.058594 C 34.570312 23.890625 34.535156 23.726562 34.46875 23.574219 C 34.40625 23.417969 34.3125 23.28125 34.191406 23.164062 Z M 31.773438 20.707031 " fill-opacity="1" fill-rule="nonzero"/></g></svg>