<svg xmlns="http://www.w3.org/2000/svg" xmlns:xlink="http://www.w3.org/1999/xlink" width="56" zoomAndPan="magnify" viewBox="0 0 42 42" height="56" preserveAspectRatio="xMidYMid meet" version="1.0"><defs><clipPath id="735a3ac178"><path d="M 5.554688 7.511719 L 22.710938 7.511719 L 22.710938 33.152344 L 5.554688 33.152344 Z M 5.554688 7.511719 " clip-rule="nonzero"/></clipPath><clipPath id="9e542092e9"><path d="M 31.011719 11.464844 L 36.304688 11.464844 L 36.304688 29.199219 L 31.011719 29.199219 Z M 31.011719 11.464844 " clip-rule="nonzero"/></clipPath></defs><g clip-path="url(#735a3ac178)"><path fill="#ffffff" d="M 21.152344 30.554688 L 14.214844 24.941406 C 13.988281 24.757812 13.703125 24.660156 13.410156 24.664062 L 7.113281 24.746094 L 7.113281 15.917969 L 13.410156 16 C 13.703125 16.003906 13.988281 15.90625 14.214844 15.722656 L 21.152344 10.109375 Z M 21.765625 7.625 L 13.546875 14.273438 C 13.398438 14.394531 13.214844 14.457031 13.023438 14.457031 L 6.160156 14.363281 C 5.828125 14.359375 5.554688 14.625 5.554688 14.953125 L 5.554688 25.710938 C 5.554688 26.039062 5.828125 26.304688 6.160156 26.300781 L 13.023438 26.210938 C 13.214844 26.207031 13.398438 26.269531 13.546875 26.390625 L 21.765625 33.039062 C 22.160156 33.320312 22.707031 33.042969 22.707031 32.5625 L 22.707031 8.101562 C 22.707031 7.621094 22.160156 7.34375 21.765625 7.625 " fill-opacity="1" fill-rule="nonzero"/></g><g clip-path="url(#9e542092e9)"><path fill="#ffffff" d="M 31.84375 29.175781 C 31.605469 29.175781 31.382812 29.078125 31.226562 28.902344 C 30.921875 28.566406 30.953125 28.050781 31.292969 27.75 C 33.429688 25.867188 34.65625 23.164062 34.65625 20.332031 C 34.65625 17.5 33.429688 14.796875 31.292969 12.914062 C 31.128906 12.769531 31.03125 12.570312 31.019531 12.351562 C 31.003906 12.132812 31.078125 11.921875 31.226562 11.761719 C 31.386719 11.578125 31.613281 11.488281 31.84375 11.488281 C 32.039062 11.488281 32.234375 11.554688 32.390625 11.691406 C 33.609375 12.765625 34.570312 14.054688 35.25 15.515625 C 35.949219 17.03125 36.304688 18.652344 36.304688 20.332031 C 36.304688 22.011719 35.949219 23.632812 35.25 25.148438 C 34.570312 26.609375 33.609375 27.898438 32.390625 28.972656 C 32.238281 29.105469 32.042969 29.175781 31.84375 29.175781 " fill-opacity="1" fill-rule="nonzero"/></g><path fill="#ffffff" d="M 26.96875 25.441406 C 26.664062 25.441406 26.386719 25.277344 26.242188 25.011719 C 26.136719 24.820312 26.117188 24.597656 26.179688 24.390625 C 26.242188 24.179688 26.382812 24.007812 26.578125 23.902344 C 27.90625 23.195312 28.734375 21.828125 28.734375 20.332031 C 28.734375 18.835938 27.90625 17.46875 26.578125 16.757812 C 26.175781 16.546875 26.027344 16.050781 26.242188 15.652344 C 26.390625 15.378906 26.675781 15.222656 26.96875 15.222656 C 27.035156 15.222656 27.101562 15.230469 27.167969 15.246094 C 27.234375 15.261719 27.296875 15.289062 27.359375 15.320312 C 29.222656 16.316406 30.382812 18.234375 30.382812 20.332031 C 30.382812 22.429688 29.222656 24.347656 27.359375 25.34375 C 27.238281 25.40625 27.105469 25.441406 26.96875 25.441406 " fill-opacity="1" fill-rule="nonzero"/></svg>